# xmcd
#
# Track frame offsets: 
#        150
#        3610
#        18584
#        36510
#        40114
#        56509
#        73752
#        87994
#        106254
#        126842
#        145054
#        162546
#        182457
#
# Disc length: 2675 seconds
#
# Revision: 1
# Processed by: cddbd v1.5.2PL0 Copyright (c) Steve Scherf et al.
# Submitted via: ExactAudioCopy v0.90b4
#
DISCID=b10a710d
DTITLE=Fibes Oh Fibes! - Still Fresh
DYEAR=2004
DGENRE=Pop
TTITLE0=Still Fresh Intro
TTITLE1=One Hour Baby
TTITLE2=My Song
TTITLE3=Interlude
TTITLE4=This City's Got No Boulevards
TTITLE5=Still Fresh
TTITLE6=Half Decent Single - Brother
TTITLE7=57 Kr
TTITLE8=Miserable Woman
TTITLE9=Weekend Love
TTITLE10=Losing Weight
TTITLE11=Damn Child
TTITLE12=Bayswater Night Special
EXTD=
EXTT0=
EXTT1=
EXTT2=
EXTT3=
EXTT4=
EXTT5=
EXTT6=
EXTT7=
EXTT8=
EXTT9=
EXTT10=
EXTT11=
EXTT12=
PLAYORDER=
